<svg width="50" height="46" viewBox="0 0 50 46" fill="none" xmlns="http://www.w3.org/2000/svg">
<path d="M3.70512 45.9624V42.4417H2.25796V42.1331H5.49238V42.4417H4.04336V45.9624H3.70512ZM6.66277 45.9646V42.1356H9.31721V42.4441H6.99614V43.8546H9.02861V44.1632H6.99614V45.6584H9.36662V45.9646H6.66277ZM12.2978 45.9999C12.1658 46.001 12.0357 45.9866 11.9074 45.9569C11.7791 45.9271 11.6564 45.8832 11.5394 45.8246C11.3109 45.7122 11.1142 45.5621 10.9493 45.3738C10.7839 45.1855 10.6563 44.9763 10.5667 44.7459C10.473 44.5139 10.4261 44.2734 10.4261 44.0245C10.4277 43.7897 10.4704 43.5619 10.5544 43.3411C10.6377 43.1166 10.7597 42.9131 10.9205 42.7308C11.0871 42.5429 11.2859 42.395 11.5172 42.2865C11.7538 42.1737 12.0259 42.1167 12.3259 42.1167C12.6829 42.1167 12.9926 42.1966 13.2455 42.3541C13.3673 42.4283 13.4761 42.517 13.5717 42.6206C13.6673 42.724 13.7459 42.8381 13.8076 42.9627L13.8394 43.0266L13.5448 43.1585L13.5118 43.0984C13.4492 42.9812 13.3687 42.8763 13.2703 42.7841C13.1824 42.7011 13.0836 42.6322 12.9741 42.5773C12.8692 42.5256 12.7588 42.4876 12.6435 42.4634C12.53 42.4411 12.4154 42.4301 12.2997 42.4299C12.1862 42.4281 12.074 42.4393 11.9633 42.4632C11.8524 42.4869 11.7461 42.5231 11.6445 42.5712C11.4562 42.6625 11.2945 42.7854 11.159 42.9397C11.0254 43.0948 10.9251 43.2676 10.8586 43.4578C10.7906 43.6475 10.7567 43.8424 10.7565 44.0425C10.7558 44.258 10.7961 44.4663 10.8776 44.6673C10.9551 44.862 11.066 45.0376 11.2096 45.1945C11.3508 45.3457 11.5169 45.4658 11.7076 45.5546C11.8025 45.5992 11.9013 45.6328 12.0041 45.6554C12.1071 45.678 12.2115 45.6892 12.3171 45.6887C12.4391 45.6881 12.5595 45.6732 12.6778 45.6442C12.8024 45.6159 12.9212 45.5729 13.0344 45.5156C13.1504 45.4563 13.2557 45.383 13.3504 45.2957C13.4501 45.2015 13.5325 45.0953 13.5974 44.9768L13.6285 44.9215L13.9248 45.0325L13.8937 45.0999C13.8246 45.2465 13.7308 45.3767 13.612 45.4903C13.4956 45.6025 13.3647 45.6966 13.2198 45.773C13.0766 45.8485 12.9258 45.9051 12.7669 45.9424C12.6129 45.9793 12.4565 45.9984 12.2978 45.9999ZM17.9099 45.9646V44.1632H15.4877V45.9646H15.1543V42.1356H15.4877V43.8546H17.9099V42.1356H18.2486V45.9646H17.9099ZM22.8474 45.9646L20.1595 42.7494V45.9624H19.8261V42.1356H20.0767L22.8091 45.4072V42.1402H23.1425V45.9646H22.8474ZM26.35 45.9907C26.2168 45.992 26.0857 45.9784 25.956 45.9501C25.8264 45.9216 25.702 45.8792 25.583 45.8226C25.3566 45.7129 25.1598 45.5667 24.9926 45.3843C24.823 45.2011 24.6952 44.9943 24.6086 44.7641C24.5186 44.5339 24.4736 44.2958 24.4734 44.0502C24.4732 43.7976 24.5209 43.5538 24.6165 43.3183C24.7093 43.0896 24.8406 42.8831 25.0102 42.6989C25.1782 42.5172 25.377 42.3741 25.6064 42.2699C25.7231 42.2163 25.8447 42.1759 25.9711 42.1489C26.0973 42.122 26.2254 42.1088 26.3548 42.1097C26.4878 42.1083 26.6188 42.1222 26.7483 42.1509C26.8777 42.1797 27.0016 42.2227 27.1202 42.2797C27.3491 42.3906 27.5461 42.5396 27.711 42.727C27.876 42.9131 28.0031 43.1203 28.092 43.3486C28.1374 43.4638 28.1715 43.5818 28.1943 43.7028C28.217 43.8239 28.2282 43.9459 28.2275 44.0691C28.2268 44.192 28.2145 44.314 28.1903 44.4347C28.1662 44.5556 28.1307 44.6733 28.0841 44.788C27.9906 45.0161 27.8588 45.2217 27.689 45.4052C27.5201 45.5851 27.3213 45.7274 27.0928 45.8316C26.977 45.8847 26.8564 45.9247 26.7309 45.9514C26.6054 45.9782 26.4785 45.9914 26.35 45.9907ZM26.35 42.4228C26.2407 42.4213 26.133 42.4323 26.027 42.4562C25.9208 42.4801 25.8192 42.5161 25.7224 42.5642C25.5352 42.6572 25.373 42.7806 25.2357 42.9338C25.0979 43.0887 24.9928 43.2621 24.9207 43.4535C24.8439 43.6459 24.8058 43.8452 24.8068 44.0513C24.8056 44.2622 24.8443 44.4663 24.9227 44.6636C24.9956 44.8563 25.1025 45.0297 25.2436 45.184C25.3814 45.3352 25.5443 45.4552 25.7324 45.5441C25.8287 45.5893 25.9289 45.6231 26.0335 45.6457C26.1381 45.6683 26.2439 45.6791 26.3511 45.6782C26.4602 45.6793 26.5678 45.6679 26.6738 45.6442C26.7798 45.6203 26.8814 45.5845 26.9782 45.5369C27.1656 45.4438 27.3278 45.3205 27.4649 45.1673C27.5169 45.1087 27.5644 45.0468 27.6078 44.982C27.651 44.9173 27.6897 44.8499 27.7236 44.7804C27.7574 44.7106 27.7862 44.6392 27.8101 44.5657C27.834 44.4924 27.8528 44.4178 27.8662 44.3421C27.8797 44.2664 27.8878 44.1902 27.8908 44.1134C27.8936 44.0366 27.8911 43.96 27.8832 43.8836C27.8753 43.8072 27.8623 43.7315 27.8437 43.6567C27.8254 43.5821 27.8018 43.5088 27.7732 43.437C27.6985 43.2443 27.5899 43.0711 27.4477 42.9171C27.309 42.7667 27.1457 42.6465 26.9582 42.5561C26.8638 42.5113 26.7652 42.4775 26.6624 42.4551C26.5597 42.4325 26.4555 42.422 26.35 42.4228ZM29.5524 45.9646V42.1356H29.8857V45.6563H32.2611V45.9646H29.5524ZM34.7624 45.9907C34.6295 45.992 34.4982 45.9784 34.3685 45.9501C34.2388 45.9216 34.1144 45.8792 33.9954 45.8226C33.769 45.7129 33.5723 45.5669 33.405 45.3843C33.2357 45.2011 33.1076 44.9943 33.0211 44.7641C32.9311 44.5339 32.8861 44.2958 32.8858 44.0502C32.8856 43.7976 32.9334 43.5538 33.029 43.3183C33.122 43.0896 33.2531 42.8831 33.4227 42.6989C33.5908 42.5172 33.7894 42.3741 34.0189 42.2699C34.1356 42.2163 34.2571 42.1759 34.3836 42.1489C34.51 42.122 34.6378 42.1088 34.7673 42.1097C34.9002 42.1083 35.0313 42.1222 35.1607 42.1509C35.2902 42.1797 35.4141 42.2227 35.5328 42.2797C35.7616 42.3906 35.9585 42.5396 36.1237 42.727C36.2887 42.9131 36.4156 43.1203 36.5044 43.3486C36.5499 43.4638 36.584 43.5818 36.6067 43.7028C36.6295 43.8239 36.6406 43.9459 36.6399 44.0691C36.6392 44.192 36.6269 44.314 36.6028 44.4347C36.5787 44.5556 36.5432 44.6733 36.4965 44.788C36.4035 45.0158 36.2722 45.2217 36.1026 45.4052C35.9337 45.5851 35.7351 45.7274 35.5066 45.8316C35.3904 45.8847 35.2695 45.9247 35.144 45.9517C35.0183 45.9784 34.8912 45.9914 34.7624 45.9907ZM34.7624 42.4228C34.6534 42.4213 34.5457 42.4323 34.4395 42.4562C34.3332 42.4801 34.2318 42.5161 34.1349 42.5642C33.9476 42.6572 33.7855 42.7806 33.6484 42.9338C33.5103 43.0887 33.4053 43.2621 33.3333 43.4535C33.2953 43.5502 33.2668 43.6494 33.2477 43.7513C33.2285 43.8529 33.219 43.9556 33.2192 44.059C33.2192 44.1623 33.2292 44.2648 33.2487 44.3664C33.2681 44.4681 33.2969 44.5673 33.3352 44.664C33.4085 44.8567 33.5159 45.0301 33.6574 45.1844C33.795 45.3356 33.9581 45.4557 34.146 45.5445C34.2423 45.5898 34.3427 45.6236 34.4471 45.6462C34.5518 45.6688 34.6575 45.6797 34.765 45.6786C34.8738 45.6797 34.9814 45.6685 35.0874 45.6446C35.1937 45.6207 35.295 45.5849 35.392 45.5373C35.5795 45.4442 35.7416 45.3211 35.8787 45.1677C35.9307 45.1091 35.9783 45.0472 36.0214 44.9825C36.0648 44.9177 36.1033 44.8506 36.1372 44.7808C36.171 44.711 36.2 44.6397 36.2239 44.5662C36.2478 44.4929 36.2664 44.4185 36.2801 44.3427C36.2935 44.2668 36.3017 44.1906 36.3044 44.1138C36.3075 44.0372 36.3049 43.9604 36.297 43.8841C36.2891 43.8077 36.2761 43.732 36.2576 43.6573C36.2392 43.5825 36.2158 43.5092 36.1871 43.4374C36.1119 43.2447 36.0029 43.0714 35.8602 42.9171C35.7214 42.7667 35.5584 42.6465 35.3707 42.5561C35.2763 42.5113 35.1777 42.4775 35.0749 42.4551C34.9721 42.4325 34.868 42.422 34.7624 42.4228ZM39.6045 45.9907C39.4713 45.9916 39.34 45.9778 39.2104 45.949C39.0807 45.9201 38.9566 45.8773 38.8375 45.8204C38.6074 45.7096 38.4081 45.561 38.2397 45.3751C38.0724 45.1894 37.943 44.9825 37.8514 44.754C37.7579 44.5278 37.711 44.2931 37.7105 44.0502C37.7108 43.8004 37.7558 43.5586 37.8458 43.3242C37.933 43.0962 38.0592 42.8899 38.2244 42.7053C38.3877 42.524 38.5812 42.38 38.8053 42.2736C38.9211 42.2187 39.0417 42.1775 39.1677 42.15C39.2934 42.1224 39.421 42.1094 39.5502 42.1105C39.7356 42.1081 39.9182 42.1285 40.0977 42.1718C40.2522 42.2093 40.3972 42.2679 40.5329 42.3476C40.657 42.4202 40.7663 42.5095 40.8605 42.6155C40.9517 42.72 41.0292 42.8332 41.093 42.9548L41.1254 43.0172L40.8375 43.1585L40.8032 43.097C40.6696 42.858 40.4951 42.6842 40.2847 42.5791C40.1708 42.5247 40.052 42.4841 39.9279 42.4571C39.8038 42.4303 39.678 42.4178 39.5509 42.4198C39.4421 42.4182 39.3349 42.4294 39.2291 42.4533C39.1234 42.4773 39.0222 42.5133 38.9259 42.5611C38.7413 42.6535 38.5826 42.7764 38.4499 42.9296C38.3174 43.0861 38.2172 43.2595 38.149 43.4497C38.0799 43.6437 38.0451 43.8432 38.0446 44.0482C38.0434 44.2613 38.0845 44.4667 38.168 44.6643C38.2481 44.8556 38.3596 45.0284 38.503 45.1824C38.6441 45.3325 38.8095 45.4521 38.9992 45.541C39.0941 45.5856 39.193 45.6192 39.2957 45.6418C39.3987 45.6644 39.5029 45.6756 39.6087 45.6751C39.7242 45.6751 39.8384 45.6622 39.9506 45.6365C40.0632 45.6106 40.1708 45.5726 40.2738 45.5224C40.4759 45.4227 40.6772 45.2634 40.8728 45.0514V44.3469H39.9789V44.0502H41.1939V45.9624H40.8705V45.4734C40.5028 45.8169 40.0773 45.9907 39.6045 45.9907ZM43.5231 45.9646V44.4924L41.9198 42.1356H42.3037L43.691 44.1702L45.0827 42.1356H45.472L43.8564 44.5021V45.9646H43.5231ZM0 36.5146H1.07249V32.3381L4.49459 36.5146H5.4077V30.6438H4.33498V34.7031L1.01055 30.6438H0V36.5146ZM9.96446 36.6153C11.8705 36.6153 13.2181 35.2313 13.2181 33.5792C13.2181 31.9104 11.8881 30.5433 9.98209 30.5433C8.07606 30.5433 6.72866 31.927 6.72866 33.5792C6.72866 35.2482 8.05843 36.6153 9.96446 36.6153ZM9.98209 35.6676C8.74999 35.6676 7.87237 34.7198 7.87237 33.5792C7.87237 32.4219 8.73213 31.4909 9.96446 31.4909C11.1968 31.4909 12.0744 32.4386 12.0744 33.5792C12.0744 34.7367 11.2144 35.6676 9.98209 35.6676ZM17.1986 36.5146H19.5123C21.4626 36.5146 22.8102 35.2313 22.8102 33.5792C22.8102 31.9104 21.4626 30.6438 19.5123 30.6438H17.1986V36.5146ZM18.289 35.5752V31.5831H19.5123C20.8156 31.5831 21.6665 32.4303 21.6665 33.5792C21.6665 34.745 20.8156 35.5752 19.5123 35.5752H18.289ZM27.0921 36.6153C28.9981 36.6153 30.3458 35.2313 30.3458 33.5792C30.3458 31.9104 29.016 30.5433 27.11 30.5433C25.2039 30.5433 23.8563 31.927 23.8563 33.5792C23.8563 35.2482 25.1861 36.6153 27.0921 36.6153ZM27.11 35.6676C25.8776 35.6676 25 34.7198 25 33.5792C25 32.4219 25.8598 31.4909 27.0921 31.4909C28.3244 31.4909 29.202 32.4386 29.202 33.5792C29.202 34.7367 28.3421 35.6676 27.11 35.6676ZM34.6276 36.6153C36.5336 36.6153 37.8813 35.2313 37.8813 33.5792C37.8813 31.9104 36.5513 30.5433 34.6452 30.5433C32.7394 30.5433 31.3918 31.927 31.3918 33.5792C31.3918 35.2482 32.7216 36.6153 34.6276 36.6153ZM34.6452 35.6676C33.4131 35.6676 32.5355 34.7198 32.5355 33.5792C32.5355 32.4219 33.3953 31.4909 34.6276 31.4909C35.8599 31.4909 36.7376 32.4386 36.7376 33.5792C36.7376 34.7367 35.8776 35.6676 34.6452 35.6676ZM39.202 36.5146H40.2926V34.4682H41.64L43.1825 36.5146H44.468L42.7925 34.292C43.6613 34.0572 44.2731 33.4787 44.2731 32.5141C44.2731 31.3819 43.4219 30.6438 41.968 30.6438H39.202V36.5146ZM40.2926 33.5542V31.5831H41.8794C42.686 31.5831 43.1649 31.927 43.1649 32.556C43.1649 33.1683 42.6684 33.5542 41.8882 33.5542H40.2926ZM47.7836 36.5984C49.0869 36.5984 50 35.9444 50 34.8457C50 33.8559 49.3173 33.4115 48.0053 33.1095C46.8173 32.8411 46.5336 32.6399 46.5336 32.1871C46.5336 31.7844 46.9059 31.4743 47.5444 31.4743C48.1116 31.4743 48.6702 31.6839 49.2286 32.078L49.8137 31.298C49.1843 30.82 48.4663 30.56 47.562 30.56C46.3297 30.56 45.4432 31.2561 45.4432 32.2626C45.4432 33.3612 46.1879 33.7302 47.5089 34.0238C48.6614 34.2837 48.9096 34.5102 48.9096 34.9296C48.9096 35.3907 48.4839 35.6843 47.8102 35.6843C47.0391 35.6843 46.445 35.4076 45.8511 34.921L45.195 35.6591C45.9397 36.2881 46.8352 36.5984 47.7836 36.5984ZM10.4326 0H39.7395C40.4749 0 41.0767 0.569299 41.0767 1.26501V26.0449C41.0767 26.7406 40.4749 27.3097 39.7395 27.3097H10.4326C9.69721 27.3097 9.09543 26.7406 9.09543 26.0449V1.26501C9.09543 0.569299 9.69721 0 10.4326 0ZM16.3533 6.50611L18.2354 6.5432L18.1704 4.77781L14.3382 4.85594L14.354 21.7084C15.2722 21.9606 25.9224 21.9316 27.4113 21.7898C27.3445 21.1444 27.0564 20.6277 26.6715 20.1432L16.3314 20.1181L16.3533 6.50611ZM31.8182 7.05983C35.2129 8.07377 34.5091 16.7871 33.1719 18.5797C32.2316 19.8407 31.1693 19.6434 29.6136 20.1285C29.4222 20.8139 29.6848 21.1367 30.089 21.6869C34.8364 21.7892 36.2666 18.6813 36.391 14.2992C36.5093 10.1352 36.0163 5.53014 31.8129 5.1746L31.8182 7.05983ZM31.6403 21.8761L29.9092 21.9446L23.3213 6.73611L21.5143 6.69727C21.609 7.72152 28.0644 22.5661 29.0441 24.8057L31.5551 24.8108L31.6403 21.8761ZM20.3136 4.53705L22.1797 4.57129C22.1748 3.84441 21.4949 2.52717 21.1756 1.788L18.508 1.83299L18.5426 19.9195L20.4741 19.9988L20.3136 4.53705ZM31.5867 19.4786L31.567 1.8049L29.621 1.81456L29.7537 19.8429L31.5867 19.4786ZM20.6588 6.47824L29.3988 6.48614L29.4002 4.75893L20.5762 4.76749L20.6588 6.47824ZM18.5154 24.775L20.4602 24.7662L20.4794 22.1113L18.4924 22.1013L18.5154 24.775Z" fill="#080707"/>
</svg>
