<svg width="207" height="208" viewBox="0 0 207 208" fill="none" xmlns="http://www.w3.org/2000/svg">
<path d="M138.5 108.5C138.5 109.826 137.973 111.098 137.036 112.036C136.098 112.973 134.826 113.5 133.5 113.5H73.5C72.1741 113.499 70.9026 112.973 69.965 112.035C69.0275 111.097 68.5005 109.826 68.5 108.5V78.5C68.5 77.1739 69.0268 75.9021 69.9645 74.9645C70.9021 74.0268 72.1739 73.5 73.5 73.5H79.36C83.3362 73.4978 87.1488 71.917 89.96 69.105L94.11 64.965C95.045 64.0297 96.3125 63.5029 97.635 63.5H109.355C110.681 63.5003 111.953 64.0272 112.89 64.965L117.03 69.105C118.423 70.4988 120.077 71.6044 121.898 72.3586C123.718 73.1127 125.669 73.5006 127.64 73.5H133.5C134.826 73.5005 136.097 74.0275 137.035 74.965C137.973 75.9026 138.499 77.1741 138.5 78.5V108.5ZM73.5 68.5C70.8478 68.5 68.3043 69.5536 66.4289 71.4289C64.5536 73.3043 63.5 75.8478 63.5 78.5V108.5C63.5 111.152 64.5536 113.696 66.4289 115.571C68.3043 117.446 70.8478 118.5 73.5 118.5H133.5C136.152 118.5 138.695 117.446 140.571 115.571C142.446 113.695 143.5 111.152 143.5 108.5V78.5C143.499 75.848 142.446 73.3048 140.57 71.4295C138.695 69.5543 136.152 68.5005 133.5 68.5H127.64C124.988 68.4994 122.445 67.4455 120.57 65.57L116.43 61.43C114.555 59.5545 112.012 58.5006 109.36 58.5H97.64C94.9881 58.5006 92.4449 59.5545 90.57 61.43L86.43 65.57C84.5551 67.4455 82.0119 68.4994 79.36 68.5H73.5Z" fill="#1E1E1E"/>
<path d="M203 2.5H4C2.89543 2.5 2 3.39543 2 4.5V203.5C2 204.605 2.89543 205.5 4 205.5H203C204.105 205.5 205 204.605 205 203.5V4.5C205 3.39543 204.105 2.5 203 2.5Z" stroke="#1E1E1E" stroke-width="4" stroke-linecap="square" stroke-linejoin="round" stroke-dasharray="12 12"/>
<path d="M48.0318 143.982V139.171H48.8588C49.1365 138.949 49.3961 138.638 49.6376 138.235C49.8791 137.833 50.0843 137.281 50.2534 136.581C50.4224 135.881 50.5391 134.975 50.6035 133.864L50.9295 128.636H58.8319V139.171H60.2083V143.97H58.0591V141H50.1809V143.982H48.0318ZM51.4668 139.171H56.6827V130.514H52.9458L52.7527 133.864C52.7003 134.705 52.6158 135.458 52.4991 136.122C52.3824 136.786 52.2355 137.372 52.0584 137.879C51.8813 138.382 51.6841 138.813 51.4668 139.171ZM65.9811 141.181C65.0756 141.181 64.2907 140.982 63.6267 140.583C62.9626 140.185 62.4475 139.628 62.0812 138.911C61.719 138.195 61.5379 137.358 61.5379 136.4C61.5379 135.442 61.719 134.603 62.0812 133.882C62.4475 133.162 62.9626 132.603 63.6267 132.204C64.2907 131.806 65.0756 131.607 65.9811 131.607C66.8866 131.607 67.6714 131.806 68.3355 132.204C68.9996 132.603 69.5127 133.162 69.8749 133.882C70.2412 134.603 70.4243 135.442 70.4243 136.4C70.4243 137.358 70.2412 138.195 69.8749 138.911C69.5127 139.628 68.9996 140.185 68.3355 140.583C67.6714 140.982 66.8866 141.181 65.9811 141.181ZM65.9932 139.43C66.4842 139.43 66.8947 139.296 67.2247 139.026C67.5547 138.752 67.8002 138.386 67.9612 137.927C68.1262 137.468 68.2087 136.957 68.2087 136.394C68.2087 135.826 68.1262 135.313 67.9612 134.854C67.8002 134.392 67.5547 134.023 67.2247 133.75C66.8947 133.476 66.4842 133.339 65.9932 133.339C65.4901 133.339 65.0715 133.476 64.7375 133.75C64.4075 134.023 64.1599 134.392 63.9949 134.854C63.834 135.313 63.7535 135.826 63.7535 136.394C63.7535 136.957 63.834 137.468 63.9949 137.927C64.1599 138.386 64.4075 138.752 64.7375 139.026C65.0715 139.296 65.4901 139.43 65.9932 139.43ZM71.4581 143.692V139.201H72.1946C72.3918 139.048 72.5568 138.841 72.6896 138.579C72.8224 138.314 72.9311 138.002 73.0156 137.643C73.1042 137.281 73.1766 136.877 73.233 136.43C73.2893 135.979 73.3396 135.494 73.3839 134.975L73.6495 131.727H80.3505V139.201H81.7873V143.692H79.6744V141H73.6072V143.692H71.4581ZM74.4403 139.201H78.2617V133.49H75.5451L75.4002 134.975C75.3197 135.957 75.2131 136.798 75.0803 137.499C74.9474 138.199 74.7341 138.766 74.4403 139.201ZM86.0871 141.187C85.4995 141.187 84.9703 141.083 84.4994 140.873C84.0325 140.66 83.6623 140.346 83.3886 139.931C83.1189 139.517 82.9841 139.006 82.9841 138.398C82.9841 137.875 83.0807 137.442 83.2739 137.1C83.4671 136.758 83.7307 136.484 84.0647 136.279C84.3988 136.074 84.7751 135.919 85.1936 135.814C85.6162 135.706 86.0529 135.627 86.5036 135.579C87.047 135.522 87.4877 135.472 87.8257 135.428C88.1638 135.38 88.4093 135.307 88.5622 135.211C88.7192 135.11 88.7977 134.955 88.7977 134.746V134.71C88.7977 134.255 88.6628 133.903 88.3932 133.653C88.1235 133.404 87.7352 133.279 87.2281 133.279C86.6928 133.279 86.2682 133.395 85.9543 133.629C85.6444 133.862 85.4351 134.138 85.3264 134.456L83.286 134.166C83.4469 133.603 83.7126 133.132 84.0828 132.754C84.4531 132.371 84.9059 132.085 85.4411 131.896C85.9764 131.703 86.568 131.607 87.216 131.607C87.6627 131.607 88.1075 131.659 88.5502 131.763C88.9929 131.868 89.3973 132.041 89.7636 132.283C90.1298 132.52 90.4236 132.844 90.645 133.255C90.8704 133.665 90.983 134.178 90.983 134.794V141H88.8822V139.726H88.8097C88.6769 139.984 88.4898 140.225 88.2483 140.451C88.0109 140.672 87.711 140.851 87.3488 140.988C86.9906 141.121 86.57 141.187 86.0871 141.187ZM86.6546 139.581C87.0932 139.581 87.4736 139.495 87.7955 139.322C88.1175 139.145 88.365 138.911 88.5381 138.621C88.7152 138.332 88.8037 138.016 88.8037 137.674V136.581C88.7353 136.637 88.6186 136.69 88.4536 136.738C88.2926 136.786 88.1115 136.828 87.9102 136.865C87.709 136.901 87.5098 136.933 87.3126 136.961C87.1154 136.989 86.9443 137.014 86.7994 137.034C86.4735 137.078 86.1817 137.15 85.9241 137.251C85.6665 137.352 85.4633 137.493 85.3144 137.674C85.1655 137.851 85.091 138.08 85.091 138.362C85.091 138.764 85.2379 139.068 85.5317 139.273C85.8255 139.479 86.1998 139.581 86.6546 139.581ZM92.1421 133.52V131.727H100.256V133.52H97.2554V141H95.1425V133.52H92.1421ZM104.103 138.042L107.816 131.727H110.061V141H107.948V134.679L104.248 141H101.996V131.727H104.103V138.042ZM120.73 144.151V128.636H122.921V144.151H120.73ZM120.73 141.181C120.05 141.181 119.428 141.066 118.865 140.837C118.301 140.608 117.814 140.282 117.404 139.859C116.997 139.436 116.681 138.933 116.456 138.35C116.235 137.762 116.124 137.112 116.124 136.4C116.124 135.687 116.235 135.038 116.456 134.45C116.681 133.862 116.997 133.357 117.404 132.935C117.814 132.508 118.301 132.18 118.865 131.951C119.428 131.721 120.05 131.607 120.73 131.607H121.195V141.181H120.73ZM120.73 139.418H121.002V133.369H120.73C120.344 133.369 120.002 133.45 119.704 133.611C119.41 133.768 119.162 133.987 118.961 134.269C118.764 134.547 118.613 134.868 118.508 135.235C118.408 135.597 118.358 135.985 118.358 136.4C118.358 136.951 118.448 137.456 118.629 137.915C118.81 138.37 119.076 138.734 119.426 139.008C119.78 139.281 120.215 139.418 120.73 139.418ZM122.921 141.181H122.457V131.607H122.921C123.602 131.607 124.223 131.721 124.787 131.951C125.35 132.18 125.835 132.508 126.242 132.935C126.652 133.357 126.968 133.862 127.19 134.45C127.415 135.038 127.528 135.687 127.528 136.4C127.528 137.112 127.415 137.762 127.19 138.35C126.968 138.933 126.652 139.436 126.242 139.859C125.835 140.282 125.35 140.608 124.787 140.837C124.223 141.066 123.602 141.181 122.921 141.181ZM122.921 139.418C123.312 139.418 123.654 139.34 123.948 139.183C124.242 139.026 124.487 138.809 124.684 138.531C124.885 138.253 125.036 137.933 125.137 137.571C125.238 137.205 125.288 136.814 125.288 136.4C125.288 135.848 125.199 135.343 125.022 134.885C124.845 134.426 124.58 134.06 124.225 133.786C123.875 133.508 123.441 133.369 122.921 133.369H122.65V139.418H122.921ZM133.417 141.181C132.511 141.181 131.726 140.982 131.062 140.583C130.398 140.185 129.883 139.628 129.517 138.911C129.155 138.195 128.973 137.358 128.973 136.4C128.973 135.442 129.155 134.603 129.517 133.882C129.883 133.162 130.398 132.603 131.062 132.204C131.726 131.806 132.511 131.607 133.417 131.607C134.322 131.607 135.107 131.806 135.771 132.204C136.435 132.603 136.948 133.162 137.31 133.882C137.677 134.603 137.86 135.442 137.86 136.4C137.86 137.358 137.677 138.195 137.31 138.911C136.948 139.628 136.435 140.185 135.771 140.583C135.107 140.982 134.322 141.181 133.417 141.181ZM133.429 139.43C133.92 139.43 134.33 139.296 134.66 139.026C134.99 138.752 135.236 138.386 135.397 137.927C135.562 137.468 135.644 136.957 135.644 136.394C135.644 135.826 135.562 135.313 135.397 134.854C135.236 134.392 134.99 134.023 134.66 133.75C134.33 133.476 133.92 133.339 133.429 133.339C132.926 133.339 132.507 133.476 132.173 133.75C131.843 134.023 131.595 134.392 131.43 134.854C131.27 135.313 131.189 135.826 131.189 136.394C131.189 136.957 131.27 137.468 131.43 137.927C131.595 138.386 131.843 138.752 132.173 139.026C132.507 139.296 132.926 139.43 133.429 139.43ZM138.693 133.52V131.727H146.807V133.52H143.806V141H141.693V133.52H138.693ZM152.21 141.181C151.304 141.181 150.519 140.982 149.855 140.583C149.191 140.185 148.676 139.628 148.31 138.911C147.948 138.195 147.766 137.358 147.766 136.4C147.766 135.442 147.948 134.603 148.31 133.882C148.676 133.162 149.191 132.603 149.855 132.204C150.519 131.806 151.304 131.607 152.21 131.607C153.115 131.607 153.9 131.806 154.564 132.204C155.228 132.603 155.741 133.162 156.103 133.882C156.47 134.603 156.653 135.442 156.653 136.4C156.653 137.358 156.47 138.195 156.103 138.911C155.741 139.628 155.228 140.185 154.564 140.583C153.9 140.982 153.115 141.181 152.21 141.181ZM152.222 139.43C152.713 139.43 153.123 139.296 153.453 139.026C153.783 138.752 154.029 138.386 154.19 137.927C154.355 137.468 154.437 136.957 154.437 136.394C154.437 135.826 154.355 135.313 154.19 134.854C154.029 134.392 153.783 134.023 153.453 133.75C153.123 133.476 152.713 133.339 152.222 133.339C151.719 133.339 151.3 133.476 150.966 133.75C150.636 134.023 150.388 134.392 150.223 134.854C150.062 135.313 149.982 135.826 149.982 136.394C149.982 136.957 150.062 137.468 150.223 137.927C150.388 138.386 150.636 138.752 150.966 139.026C151.3 139.296 151.719 139.43 152.222 139.43Z" fill="#1E1E1E"/>
<circle cx="103.5" cy="92.5" r="17.5" fill="#1E1E1E"/>
<circle cx="103.5" cy="92.5" r="12.5" fill="white"/>
<circle cx="77.5" cy="82.5" r="2.5" fill="#1E1E1E"/>
</svg>
