<svg width="22" height="22" viewBox="0 0 22 22" fill="none" xmlns="http://www.w3.org/2000/svg">
<g clip-path="url(#clip0_799_1690)">
<path d="M1.13677 22.0001C0.846974 22.0001 0.55718 21.8898 0.337002 21.668C-0.10501 21.226 -0.10501 20.5094 0.337002 20.0674L20.0729 0.331509C20.5149 -0.110503 21.2315 -0.110503 21.6735 0.331509C22.1155 0.773521 22.1155 1.49013 21.6735 1.93242L1.93792 21.668C1.71608 21.8884 1.42629 22.0001 1.13677 22.0001Z" fill="black"/>
<path d="M20.874 22.0001C20.5842 22.0001 20.2947 21.8898 20.0742 21.668L0.337002 1.93242C-0.10501 1.49013 -0.10501 0.773521 0.337002 0.331509C0.779015 -0.110503 1.49563 -0.110503 1.93792 0.331509L21.6735 20.0674C22.1155 20.5094 22.1155 21.226 21.6735 21.668C21.4517 21.8884 21.1621 22.0001 20.874 22.0001Z" fill="black"/>
</g>
<defs>
<clipPath id="clip0_799_1690">
<rect width="22" height="22" fill="white"/>
</clipPath>
</defs>
</svg>
