<svg width="60" height="60" viewBox="0 0 60 60" fill="none" xmlns="http://www.w3.org/2000/svg">
<g clip-path="url(#clip0_37_4674)">
<path d="M55.9673 4.03236C50.5909 -1.34404 41.8429 -1.34404 36.4664 4.03236L30.7564 9.74233C28.5217 11.9771 27.1147 14.9406 26.7949 18.0869C26.512 20.869 27.0865 23.6836 28.4141 26.1149L26.1149 28.414C23.6836 27.0865 20.8692 26.512 18.087 26.7948C14.9406 27.1147 11.9771 28.5217 9.74239 30.7564L4.03229 36.4663C-1.3441 41.8427 -1.3441 50.5907 4.03229 55.9672C6.66114 58.5961 10.1949 59.9999 13.7945 59.9999C15.441 59.9999 17.1019 59.7058 18.695 59.101C19.2999 58.8713 19.6041 58.1947 19.3744 57.5897C19.1447 56.9846 18.468 56.6805 17.8632 56.9102C13.6479 58.5107 8.86946 57.4902 5.68956 54.3103C1.22687 49.8476 1.22687 42.5862 5.68956 38.1236L11.3995 32.4135C14.8228 28.9903 20.0753 28.1369 24.3747 30.1543L22.3005 32.2285C19.1531 31.157 15.6933 31.9431 13.3111 34.3253L7.60109 40.0353C5.95226 41.6842 5.04407 43.8796 5.04407 46.217C5.04407 48.5544 5.95214 50.7497 7.60109 52.3986C9.25004 54.0475 11.4454 54.9556 13.7828 54.9556C16.1202 54.9556 18.3156 54.0475 19.9644 52.3986L25.6745 46.6886C28.0483 44.3148 28.8368 40.8709 27.782 37.7323L29.8587 35.6556C31.855 39.9481 30.9946 45.1917 27.5861 48.6002L25.6043 50.5821C25.1467 51.0396 25.1467 51.7815 25.6043 52.2392C25.8331 52.4679 26.133 52.5824 26.4328 52.5824C26.7327 52.5824 27.0326 52.4679 27.2613 52.2392L29.2432 50.2574C31.4678 48.0328 32.8732 45.0833 33.2006 41.9524C33.4915 39.1698 32.9237 36.3499 31.6009 33.9134L33.9114 31.6029C35.9298 32.6989 38.2114 33.2757 40.5177 33.2755C40.9877 33.2755 41.4591 33.2515 41.929 33.2033C45.069 32.8802 48.0266 31.4739 50.2572 29.2433L55.9672 23.5334C61.3437 18.1569 61.3437 9.40875 55.9673 4.03236ZM35.9823 14.9682L41.6923 9.25818C42.8986 8.05191 44.5055 7.38755 46.2169 7.38755C47.9283 7.38755 49.5352 8.05191 50.7416 9.25818C51.9479 10.4645 52.6122 12.0713 52.6122 13.7827C52.6122 15.4941 51.9479 17.101 50.7416 18.3074L45.0317 24.0174C43.6177 25.4314 41.6182 26.0759 39.6827 25.8318L39.686 25.8285C41.2003 24.3142 41.2003 21.8502 39.686 20.3359C38.9524 19.6024 37.9771 19.1984 36.9397 19.1984C35.9022 19.1984 34.9269 19.6024 34.1934 20.336L34.1661 20.3633C33.8925 18.4089 34.5344 16.416 35.9823 14.9682ZM35.8502 21.9929C36.1411 21.702 36.5279 21.5417 36.9394 21.5417C37.3509 21.5417 37.7377 21.702 38.0286 21.9929C38.6293 22.5935 38.6293 23.5707 38.0286 24.1714L32.8933 29.3068C32.888 29.3121 32.8826 29.3173 32.8773 29.3228L31.5995 30.6006L30.1465 27.6967L35.8502 21.9929ZM24.1714 38.0287C23.5708 38.6294 22.5935 38.6293 21.993 38.0287C21.702 37.7378 21.5417 37.3509 21.5417 36.9395C21.5417 36.5281 21.702 36.1412 21.993 35.8503L28.4001 29.4431L29.853 32.3471L24.1714 38.0287ZM24.0175 45.0314L18.3074 50.7414C17.1011 51.9477 15.4942 52.612 13.7828 52.612C12.0714 52.612 10.4645 51.9477 9.25812 50.7414C8.05185 49.5351 7.38749 47.9283 7.38749 46.2169C7.38749 44.5055 8.05185 42.8986 9.25812 41.6922L14.968 35.9822C16.3892 34.561 18.4078 33.9166 20.3555 34.1733L20.3357 34.1931C19.6021 34.9267 19.1981 35.9019 19.1981 36.9394C19.1981 37.9768 19.6021 38.9521 20.3356 39.6857C21.0927 40.4429 22.0874 40.8215 23.082 40.8215C24.0765 40.8215 25.0711 40.4429 25.8282 39.6857L25.8386 39.6753C26.0985 41.6171 25.456 43.593 24.0175 45.0314ZM54.3103 21.8761L48.6002 27.5861C45.1878 30.9986 39.9484 31.8574 35.655 29.8592L37.734 27.7802C38.6293 28.0773 39.5575 28.2243 40.4819 28.2243C42.7658 28.2243 45.0238 27.3391 46.6885 25.6744L52.3985 19.9644C54.0473 18.3155 54.9555 16.1202 54.9555 13.7827C54.9555 11.4453 54.0474 9.24998 52.3985 7.60115C50.7495 5.9522 48.5542 5.04413 46.2168 5.04413C43.8793 5.04413 41.684 5.9522 40.0351 7.60115L34.3251 13.3111C31.9433 15.693 31.1569 19.1532 32.2283 22.3006L30.1543 24.3746C28.1368 20.0753 28.9902 14.8226 32.4135 11.3995L38.1234 5.6895C42.586 1.22681 49.8476 1.22681 54.3101 5.6895C58.773 10.1521 58.773 17.4134 54.3103 21.8761Z" fill="black"/>
<path d="M49.2795 44.472C49.1464 44.0916 48.8271 43.8064 48.4343 43.7168C48.0414 43.6273 47.6301 43.7458 47.3452 44.0306L45.3493 46.0266L43.8775 41.8234C43.6635 41.2126 42.995 40.8909 42.3844 41.1048C41.7736 41.3187 41.4519 41.9871 41.6658 42.5979L43.7536 48.5607C43.8867 48.941 44.206 49.2262 44.5989 49.3158C44.9919 49.4057 45.4032 49.2869 45.688 49.0021L47.6839 47.006L49.1557 51.2091C49.3247 51.6918 49.7775 51.9939 50.2616 51.9939C50.39 51.9939 50.5206 51.9726 50.6488 51.9277C51.2596 51.7139 51.5813 51.0454 51.3674 50.4346L49.2795 44.472Z" fill="#399A3A"/>
<path d="M51.2132 35.1898H46.5164C45.8693 35.1898 45.3447 35.7143 45.3447 36.3615C45.3447 37.0086 45.8693 37.5332 46.5164 37.5332H51.2132C51.8604 37.5332 52.385 37.0086 52.385 36.3615C52.385 35.7143 51.8604 35.1898 51.2132 35.1898Z" fill="#399A3A"/>
<path d="M36.3621 45.3447C35.715 45.3447 35.1904 45.8692 35.1904 46.5164V51.2132C35.1904 51.8603 35.715 52.3849 36.3621 52.3849C37.0093 52.3849 37.5338 51.8603 37.5338 51.2132V46.5164C37.5338 45.8692 37.0093 45.3447 36.3621 45.3447Z" fill="#399A3A"/>
<path d="M8.81221 10.8661L13.0153 12.3379L11.0192 14.3338C10.7343 14.6188 10.6158 15.03 10.7055 15.4229C10.7951 15.8158 11.0803 16.1351 11.4606 16.2682L17.4232 18.356C17.5513 18.4009 17.6819 18.4222 17.8105 18.4222C18.2944 18.4222 18.7474 18.1201 18.9163 17.6374C19.1302 17.0267 18.8085 16.3583 18.1977 16.1443L13.9947 14.6725L15.9907 12.6766C16.2757 12.3917 16.3941 11.9804 16.3045 11.5875C16.2148 11.1947 15.9297 10.8754 15.5493 10.7423L9.5866 8.6544C8.97578 8.44056 8.30744 8.76231 8.09349 9.37301C7.87965 9.98382 8.2014 10.6523 8.81221 10.8661Z" fill="#399A3A"/>
<path d="M23.66 14.6769C24.3071 14.6769 24.8317 14.1523 24.8317 13.5052V8.80825C24.8317 8.16111 24.3071 7.63654 23.66 7.63654C23.0129 7.63654 22.4883 8.16111 22.4883 8.80825V13.5052C22.4883 14.1523 23.0129 14.6769 23.66 14.6769Z" fill="#399A3A"/>
<path d="M8.80843 24.8318H13.5053C14.1525 24.8318 14.6771 24.3072 14.6771 23.6601C14.6771 23.013 14.1525 22.4884 13.5053 22.4884H8.80843C8.16129 22.4884 7.63672 23.013 7.63672 23.6601C7.63672 24.3072 8.16129 24.8318 8.80843 24.8318Z" fill="#399A3A"/>
<path d="M22.7049 53.967C22.3968 53.967 22.0945 54.0924 21.8765 54.3104C21.6586 54.5283 21.5332 54.8306 21.5332 55.1388C21.5332 55.4469 21.6586 55.7492 21.8765 55.9671C22.0945 56.1851 22.3968 56.3105 22.7049 56.3105C23.0131 56.3105 23.3154 56.1851 23.5333 55.9671C23.7512 55.7492 23.8766 55.4469 23.8766 55.1388C23.8766 54.8306 23.7512 54.5283 23.5333 54.3104C23.3154 54.0924 23.0131 53.967 22.7049 53.967Z" fill="#399A3A"/>
</g>
<defs>
<clipPath id="clip0_37_4674">
<rect width="60" height="60" fill="white"/>
</clipPath>
</defs>
</svg>
