<svg width="60" height="60" viewBox="0 0 60 60" fill="none" xmlns="http://www.w3.org/2000/svg">
<g clip-path="url(#clip0_37_4630)">
<path d="M20.8357 24.2486C21.2939 23.7904 21.2939 23.0484 20.8357 22.5915C20.3789 22.1333 19.6368 22.1333 19.1786 22.5915C18.7204 23.0484 18.7204 23.7904 19.1786 24.2486C19.6368 24.7055 20.3789 24.7055 20.8357 24.2486Z" fill="#399A3A"/>
<path d="M32.4374 25.9057C33.808 24.5352 33.808 22.305 32.4374 20.9344C31.0637 19.5607 28.839 19.5602 27.4652 20.9344C26.091 22.3082 26.091 24.5315 27.4652 25.9057C28.8358 27.2763 31.0664 27.2767 32.4374 25.9057ZM29.1223 22.5915C29.5805 22.1338 30.3221 22.1338 30.7803 22.5915C31.2367 23.0484 31.2367 23.7913 30.7803 24.2482C30.323 24.705 29.5792 24.7055 29.1223 24.2482C28.665 23.7913 28.6632 23.0507 29.1223 22.5915Z" fill="#181818"/>
<path d="M27.4652 34.1912C26.091 35.5654 26.091 37.7897 27.4652 39.1639C28.839 40.5376 31.0632 40.5381 32.4374 39.1639C33.8084 37.7929 33.8084 35.5622 32.4374 34.1912C31.0637 32.8179 28.839 32.8175 27.4652 34.1912ZM30.7803 37.5068C30.3221 37.9645 29.5801 37.9645 29.1223 37.5068C28.665 37.0495 28.6632 36.3079 29.1223 35.8488C29.5805 35.3905 30.3221 35.391 30.7803 35.8488C31.2372 36.3056 31.2372 37.0495 30.7803 37.5068Z" fill="#181818"/>
<path d="M20.5153 31.9359C20.6421 32.5713 21.2601 32.9819 21.8941 32.8551L38.4665 29.54C39.1009 29.4132 39.5125 28.7957 39.3857 28.1612C39.2589 27.5263 38.6413 27.1152 38.0069 27.242L21.4345 30.5571C20.7996 30.6839 20.388 31.3015 20.5153 31.9359Z" fill="#181818"/>
<path d="M35.6263 6.62976C35.3154 6.62976 35.0174 6.7529 34.7977 6.97263L22.4944 19.2759C22.0367 19.7337 22.0367 20.4757 22.4944 20.9335C22.9522 21.3912 23.6942 21.3912 24.1515 20.9335L35.6263 9.45874L50.5411 24.374L24.2325 50.6826L9.31726 35.7677L17.5227 27.5623C17.9804 27.105 17.9804 26.363 17.5227 25.9052C17.0649 25.4479 16.3229 25.4479 15.8651 25.9052L6.8316 34.9392C6.37384 35.3965 6.37384 36.1385 6.8316 36.5963L23.404 53.1687C23.8618 53.6265 24.6033 53.6265 25.0611 53.1687L53.0272 25.2026C53.485 24.7448 53.485 24.0028 53.0272 23.545L36.4548 6.97263C36.2351 6.7529 35.9371 6.62976 35.6263 6.62976Z" fill="#399A3A"/>
<path d="M57.9981 0.343725L52.9682 5.37317C50.0335 3.15714 45.9809 3.12097 43.0709 5.28161L38.951 1.04227C38.9469 1.03815 38.9433 1.03449 38.9391 1.03037C37.5723 -0.336511 35.3494 -0.35116 33.966 1.0322L1.02951 34.1106C-0.344242 35.4844 -0.344699 37.7091 1.02951 39.0833L5.67763 43.731C4.63942 46.7023 5.38832 50.071 7.65837 52.3401C9.92796 54.6106 13.2966 55.3591 16.268 54.3218L20.9161 58.9694C22.2899 60.3432 24.5155 60.3427 25.8865 58.9713L58.9686 26.0311C60.3428 24.6569 60.3428 22.4335 58.9686 21.0598C58.9644 21.0557 58.9608 21.052 58.9567 21.0479L54.7178 16.9289C56.8706 14.0386 56.8624 9.98421 54.6258 7.03073L59.6552 2.00128C60.113 1.54352 60.113 0.801488 59.6552 0.343725C59.1974 -0.114038 58.4559 -0.114038 57.9981 0.343725ZM52.2816 16.1718C52.06 16.3938 51.9364 16.695 51.9382 17.009C51.9405 17.3226 52.0687 17.6224 52.2935 17.8408L57.316 22.7219C57.7706 23.1815 57.7656 23.9194 57.3128 24.3717L24.2312 57.3119C23.7739 57.7692 23.0301 57.7692 22.5732 57.3119L17.3758 52.1149C17.1515 51.8901 16.8512 51.7716 16.5472 51.7716C16.3788 51.7716 16.2089 51.8077 16.0496 51.8823C13.7961 52.9398 11.0898 52.4577 9.31593 50.6825C7.54073 48.9087 7.0587 46.2029 8.11613 43.9493C8.32579 43.5021 8.23332 42.972 7.88405 42.6227L2.68707 37.4257C2.22976 36.9684 2.22976 36.225 2.68844 35.7659L35.6254 2.68747C36.0813 2.232 36.8183 2.22925 37.277 2.68244L42.1577 7.70501C42.5953 8.15545 43.3447 8.19939 43.8271 7.71737C45.8331 5.71054 48.9742 5.4963 51.2882 7.05316L49.5693 8.77206C48.2624 8.1495 46.6483 8.37792 45.568 9.45824C44.1975 10.8292 44.1975 13.0599 45.568 14.4305C46.9418 15.8042 49.1665 15.8047 50.5407 14.4305C51.6457 13.3254 51.8394 11.7045 51.2283 10.4278L52.9467 8.70934C54.4916 10.9963 54.3136 14.1402 52.2816 16.1718ZM48.8831 11.1153C49.3404 11.5726 49.3423 12.3142 48.8831 12.7734C48.4254 13.2311 47.6833 13.2311 47.2256 12.7734C46.7683 12.3161 46.7683 11.5722 47.2251 11.1153C47.6824 10.659 48.4263 10.658 48.8831 11.1153Z" fill="#181818"/>
</g>
<defs>
<clipPath id="clip0_37_4630">
<rect width="60" height="59.9999" fill="white"/>
</clipPath>
</defs>
</svg>
