<svg width="60" height="60" viewBox="0 0 60 60" fill="none" xmlns="http://www.w3.org/2000/svg">
<path d="M50.0033 39.5329H41.6586V20.9095C41.6586 20.2494 41.1234 19.7143 40.4634 19.7143H19.5366C18.8766 19.7143 18.3414 20.2494 18.3414 20.9095V39.5329H9.99666C4.48452 39.5329 0 44.0174 0 49.5295C0 55.0417 4.48452 59.5262 9.99666 59.5262H50.0033C55.5155 59.5262 60 55.0418 60 49.5295C60 44.0173 55.5155 39.5329 50.0033 39.5329ZM28.6606 22.1047H31.3393V28.3311H28.6606V22.1047ZM20.7318 22.1047H26.2701V29.5263C26.2701 30.1864 26.8053 30.7215 27.4653 30.7215H32.5345C33.1945 30.7215 33.7297 30.1864 33.7297 29.5263V22.1047H39.2679V39.5329H20.7318V22.1047ZM50.0032 57.1358H9.99666C5.80253 57.1358 2.39039 53.7237 2.39039 49.5295C2.39039 45.3354 5.80253 41.9233 9.99666 41.9233H50.0032C54.1974 41.9233 57.6095 45.3354 57.6095 49.5295C57.6095 53.7236 54.1974 57.1358 50.0032 57.1358Z" fill="#181818"/>
<path d="M20.1171 45.265C17.7996 45.265 15.9141 47.1504 15.9141 49.4679C15.9141 51.7854 17.7995 53.6709 20.1171 53.6709C22.4346 53.6709 24.32 51.7855 24.32 49.4679C24.32 47.1505 22.4346 45.265 20.1171 45.265ZM20.1171 51.2805C19.1176 51.2805 18.3046 50.4674 18.3046 49.468C18.3046 48.4686 19.1177 47.6555 20.1171 47.6555C21.1165 47.6555 21.9296 48.4686 21.9296 49.468C21.9296 50.4674 21.1167 51.2805 20.1171 51.2805Z" fill="#181818"/>
<path d="M10.2351 45.265C7.91765 45.265 6.03223 47.1504 6.03223 49.4679C6.03223 51.7854 7.91765 53.6709 10.2351 53.6709C12.5526 53.6709 14.4381 51.7855 14.4381 49.4679C14.4381 47.1505 12.5526 45.265 10.2351 45.265ZM10.2351 51.2805C9.23566 51.2805 8.42261 50.4674 8.42261 49.468C8.42261 48.4686 9.23577 47.6555 10.2351 47.6555C11.2345 47.6555 12.0477 48.4686 12.0477 49.468C12.0477 50.4674 11.2345 51.2805 10.2351 51.2805Z" fill="#399A3A"/>
<path d="M29.9998 45.265C27.6823 45.265 25.7969 47.1504 25.7969 49.4679C25.7969 51.7854 27.6823 53.6709 29.9998 53.6709C32.3173 53.6709 34.2029 51.7855 34.2029 49.4679C34.2029 47.1505 32.3173 45.265 29.9998 45.265ZM29.9998 51.2805C29.0003 51.2805 28.1873 50.4674 28.1873 49.468C28.1873 48.4686 29.0004 47.6555 29.9998 47.6555C30.9992 47.6555 31.8123 48.4686 31.8123 49.468C31.8123 50.4674 30.9993 51.2805 29.9998 51.2805Z" fill="#399A3A"/>
<path d="M39.8826 45.265C37.5651 45.265 35.6797 47.1504 35.6797 49.4679C35.6797 51.7854 37.5651 53.6709 39.8826 53.6709C42.2001 53.6709 44.0856 51.7855 44.0856 49.4679C44.0856 47.1505 42.2 45.265 39.8826 45.265ZM39.8826 51.2805C38.8831 51.2805 38.0701 50.4674 38.0701 49.468C38.0701 48.4686 38.8832 47.6555 39.8826 47.6555C40.8821 47.6555 41.6951 48.4686 41.6951 49.468C41.6951 50.4674 40.8821 51.2805 39.8826 51.2805Z" fill="#181818"/>
<path d="M49.7655 45.265C47.448 45.265 45.5625 47.1504 45.5625 49.4679C45.5625 51.7854 47.4479 53.6709 49.7655 53.6709C52.0831 53.6709 53.9685 51.7855 53.9685 49.4679C53.9686 47.1505 52.083 45.265 49.7655 45.265ZM49.7655 51.2805C48.766 51.2805 47.953 50.4674 47.953 49.468C47.953 48.4686 48.7662 47.6555 49.7655 47.6555C50.7649 47.6555 51.5781 48.4686 51.5781 49.468C51.5781 50.4674 50.765 51.2805 49.7655 51.2805Z" fill="#399A3A"/>
<path d="M36.5861 35.7169H36.0321C35.3721 35.7169 34.8369 36.2519 34.8369 36.9121C34.8369 37.5722 35.3721 38.1072 36.0321 38.1072H36.5861C37.2461 38.1072 37.7812 37.5722 37.7812 36.9121C37.7812 36.2519 37.2461 35.7169 36.5861 35.7169Z" fill="#399A3A"/>
<path d="M32.3385 35.7169H23.4139C22.7539 35.7169 22.2188 36.2519 22.2188 36.9121C22.2188 37.5722 22.7539 38.1072 23.4139 38.1072H32.3385C32.9985 38.1072 33.5337 37.5722 33.5337 36.9121C33.5337 36.2519 32.9986 35.7169 32.3385 35.7169Z" fill="#399A3A"/>
</svg>
